<?xml version="1.0" encoding="UTF-8"?>
<svg xmlns="http://www.w3.org/2000/svg" version="1.1" viewBox="0 0 1300 1300">
  <defs>
    <style>
      .cls-1 {
        fill: #b1b2b3;
      }
    </style>
  </defs>
  <!-- Generator: Adobe Illustrator 28.6.0, SVG Export Plug-In . SVG Version: 1.2.0 Build 709)  -->
  <g>
    <g id="Livello_1">
      <path class="cls-1" d="M90.4,723.4h343.1c.4,61.6,22.5,113.5,68.6,154.3,31,27.5,67.4,43.3,108.7,47.6,89.8,9.3,171-46.8,202.7-125.5,33.3-82.7,3-179.6-79.5-238,117.2-177.2,234.4-354.5,351.6-531.7.4.2.9.4,1.3.6-37.3,124.5-74.6,249.1-112.4,375.5,75.5-35,149.3-69.2,223.2-103.4.3.4.6.8.9,1.1-1.5,2.2-2.9,4.4-4.4,6.6-50,71.5-99.9,143.1-150.1,214.5-3.4,4.8-3.6,8.1-.6,13.3,38,65.5,63.7,135.5,74.4,210.5,13.8,96.7,3.8,190.3-41.5,278.1-41.8,81.1-106.6,139.2-186.8,180.5-91.4,47-188.7,69.2-291.3,63-135-8.2-251.4-61-348.7-154.9-75.3-72.7-125.9-159.9-148.4-262.7-8.9-40.8-12.4-82-11.3-123.7,0-1.7.3-3.4.6-5.7Z"/>
    </g>
  </g>
</svg>