<?xml version="1.0" encoding="UTF-8"?>
<svg xmlns="http://www.w3.org/2000/svg" version="1.1" viewBox="0 0 1300 1300">
  <defs>
    <style>
      .cls-1 {
        fill: #fff;
      }

      .cls-2 {
        opacity: .5;
      }
    </style>
  </defs>
  <!-- Generator: Adobe Illustrator 28.6.0, SVG Export Plug-In . SVG Version: 1.2.0 Build 709)  -->
  <g>
    <g id="Livello_1">
      <g class="cls-2">
        <g id="Livello_1-2" data-name="Livello_1">
          <g id="Livello_1-2">
            <path class="cls-1" d="M1285.4,134.4c-1.4,2.2-2.5,4.8-4.4,6.6-35.8,34.2-71.4,68.6-107.6,102.4-42.3,39.5-84.8,78.8-127.8,117.5-41.7,37.6-84,74.5-126.2,111.4-39.4,34.4-78.6,69.1-119,102.3-57.4,47.3-115.6,93.4-173.6,139.9-30.4,24.4-60.8,48.9-91.7,72.6-49,37.6-98.3,74.7-147.8,111.7-32.5,24.3-65.4,48.1-98.4,71.8-34.3,24.6-68.8,49-103.5,73.1-26.2,18.3-52.8,36-79.3,53.9-22.8,15.5-45.6,30.9-68.4,46.3-6.7,4.5-13.7,8.8-20.6,13.1-.6-.7-1.2-1.3-1.8-2,1.9-2.3,3.6-4.8,5.7-6.8,35.7-34.3,71.2-68.8,107.4-102.6,42.1-39.3,84.6-78.2,127.3-116.9,25.6-23.2,51.6-45.9,77.7-68.4,47.3-40.7,94.5-81.4,142.3-121.5,49.9-41.9,100.1-83.2,150.5-124.5,41.7-34.2,83.4-68.5,126-101.5,54.4-42,109.6-83,164.7-124.1,28.9-21.6,58.2-42.7,87.6-63.6,48.5-34.5,96.9-69.2,146-102.9,43.2-29.8,87.2-58.5,130.8-87.6.9-.6,1.9-.9,4.3-.3h0ZM914.9,615.7c-27.8,9-47.1-4.7-65.6-20.3-6.2-5.2-12.2-10.6-18.1-16.2-4.8-4.6-8.8-4.4-13.7,0-8,7.3-16.7,13.9-24.8,21.2-2.2,2-4.8,5.7-4.4,8.1,4.4,24.9-2.5,47.5-11.1,70.7-38.5,103.1-75.9,206.7-113.7,310.1-7.4,20.3-14.9,40.7-23.1,63.2-34.7-83.4-68.6-164.8-103-247.3-4.5,2.8-8.2,4.7-11.4,7.2-8.2,6.3-15.8,13.3-24.3,19.2-5.7,3.9-6.4,7.5-3.9,13.8,33.9,83.4,67.6,166.9,101.4,250.4,9.3,22.9,18.6,45.8,28.7,70.8,1.7-3.8,2.6-5.5,3.3-7.3,41.8-102.2,83.5-204.4,125.4-306.6,9.2-22.4,16.9-45.9,29.3-66.5,19.2-32,46-55.4,87.3-49.9,12.7,1.7,25,7.2,37.4,11.1,2.2.7,4.2,1.7,7.6,3.2-18.8-45-19.7-89.1-3.4-135h0s0,0,0,0ZM470.8,715.8c2.1.8,5.9,0,7.8-1.5,10.7-8.5,21-17.5,31.6-26.1,2.1-1.7,5-2.5,7.6-3.7-123.7-49.5-207.9-131.1-245.4-258.7,48-15.6,95.6-20.2,144.2-15.2,49.2,5,95.5,19.3,139.1,42.6,2.4,1.3,6.5,1.4,9.1.3,14.3-6.2,28.5-12.8,42.5-19.5,3.6-1.7,6.5-4.6,10.4-7.4-74.9-41.3-153.1-66.1-237.7-66.6-56.9-.4-111.5,12-163.2,34.8,10.1,61.2,30.8,117.4,65.4,167.9,47.7,69.7,109.9,121.8,188.6,153.2h0s0,0,0,0ZM420.7,541.3c-15.5,12.9-30.2,26.8-45.2,40.2.9.9,1.8,1.9,2.7,2.8,2-1.8,4-3.6,6.1-5.3,17.6-13.6,34.3-28.7,53.1-40.5,66.6-41.9,140.3-58.4,218.3-58.3,2.6,0,5.7-.2,7.8-1.5,7.3-4.5,14.1-9.9,21.4-14.4,46.9-29.2,97.9-46.9,152.8-52.8,15.1-1.6,29.8-2.9,41.7-14.2,5.8-5.5,13-9.6,19.5-14.4,8.4-6.1,16.8-12.3,26.7-19.5-3.5-.8-5-1.4-6.5-1.4-25.1-.2-50.2-2-75.1-.2-60.1,4.4-115.6,25-169.5,51-45.9,22.1-92.3,43.4-139,63.9-40.4,17.8-80.5,35.9-114.7,64.5h0s0,0,0,0ZM1031.7,394.5c-10.7,10.1-22,19.7-32.7,29.8-4.7,4.5-10.7,9.2-12.6,15-16.9,53-44.1,99.7-81.8,140.5-1.6,1.7-3.9,5.1-3.3,6,5.8,8.8,9.5,19.5,20.1,23.9-1.6,8.3-3.2,16.6-5.3,27,3.3-2,4.2-2.2,4.7-2.8,8.2-8.7,16.7-17.2,24.6-26.2,52.8-59.1,85.5-128,99-206,.5-2.7,0-6.8-1.8-8.4-3.4-3-7.2-2.5-11,1.1h0ZM744.5,731.4c2.5-.6,6-2.2,6.8-4.2,6.8-16.9,13.1-34.1,19.5-51.2-1.9-.6-2.5-.9-2.9-.8-1.6.4-3.2.9-4.8,1.4-28.8,8.9-57.6,17.5-87.8,20-2.2.2-4.6,1.7-6.5,3.2-17,13.9-33.9,28-51,41.9-1.9,1.5-4.5,2-6.8,3,3.7,3.4,4.7,4.2,5.7,4.1,25.3-1.5,50.7-2,75.8-5.1,17.6-2.2,34.7-7.9,52-12.2h0ZM343.6,750.4c28.3-9.2,56.4-8.8,84.3,2,2,.8,5.5.8,7-.4,10.4-8.6,20.5-17.6,31.9-27.5-40.9-15.2-76.2-37.4-110.6-65.3,2.6,33.3-2.6,62.7-16,91.2,1.8,0,2.7.2,3.4,0h0ZM533.2,533.6c17-7.6,34.3-14.6,51.5-21.8-68.9,14.3-131.3,41.5-184.8,93.9,24.5,16.2,47.6,31.3,70.6,46.5.6-.7,1.2-1.4,1.8-2.1-.7-3.2-1.5-6.4-2.1-9.6-5.2-27-.4-51.5,18-72.7,12.7-14.5,27.3-26.4,44.9-34.2h0ZM616.4,406.6c11,7.4,21,7.7,32.3.6,6.4-4,7.6-8.1,4.7-14.4-.6-1.3-1.4-2.5-1.6-3.8-4.6-31.7-9.9-63.3-13.3-95.1-2.9-26.8-3.6-53.9-5.2-80.9-.2,0-.4-.2-.6-.3-1.7,27-3.1,54-5.3,80.9-2.9,34.1-6.4,68.2-15.7,101.3-1.5,5.2-.3,8.4,4.6,11.7h0ZM757.6,487.4c-15.8-6.9-31.2-13.6-46.7-20.3-.9-.4-2.4-.5-3.2-.1-9.3,4.5-18.6,9.1-29.9,14.6,3.8,1.8,4.7,2.5,5.7,2.7,16.4,4.2,32.9,8.2,49.2,12.7,10.9,3,17.1,1.1,25-9.6h0ZM597.3,496.2c16.4,4.5,29.3,13,36.6,31.1,5.8-19,19.8-25.5,35.1-30.7-24.1-5.9-47.6-6.4-71.7-.4h0,0ZM859.2,554c-3.9-3.6-6.1-2.6-7.9,1.3,16.6,14.4,32.5,28.3,48.4,42.1,1-1,2-2.1,3-3.1-14.5-13.4-29.1-26.8-43.5-40.3h0ZM669.4,510.6c11.9,4.5,23.7,9.2,35.7,13.3,2.4.8,5.7-.8,8.5-1.3l-.2-3.4c-14.6-3.5-29.2-6.9-43.9-10.4,0,.6-.1,1.2-.2,1.7h0s0,0,0,0ZM879.6,606.8c6.9,1.7,13.5,3.4,20.1,5,.2-.9.5-1.9.7-2.8-13-12.7-15.4-13.4-20.8-2.3h0Z"/>
          </g>
        </g>
      </g>
    </g>
  </g>
</svg>